# xmcd
#
# Track frame offsets:
#	150
#	16831
#	32343
#	48918
#	63628
#	77103
#	90276
#	112717
#	124311
#	144921
#
# Disc length: 2105 seconds
# Revision: 0
# Processed by: cddbd v1.5.2PL0 Copyright (c) Steve Scherf et al.
# Submitted via: dBpowerAMP V12.0
#
DISCID=6e08370a
DTITLE=Finnders and Youngberg - Eat the Moon
DYEAR=2015
DGENRE=Country
TTITLE0=She Wants to Eat the Moon
TTITLE1=Desert Bluebell
TTITLE2=Back Door
TTITLE3=The Day is Wide Open
TTITLE4=Old Dog Waltz
TTITLE5=After Tonight
TTITLE6=Watch Out For The Blues
TTITLE7=What Did I Do
TTITLE8=Saint Vrain
TTITLE9=Mama's Cookin'
EXTD=
EXTT0=
EXTT1=
EXTT2=
EXTT3=
EXTT4=
EXTT5=
EXTT6=
EXTT7=
EXTT8=
EXTT9=
PLAYORDER=
